<?xml version="1.0" standalone="no"?>
<!DOCTYPE svg PUBLIC "-//W3C//DTD SVG 20010904//EN"
 "http://www.w3.org/TR/2001/REC-SVG-20010904/DTD/svg10.dtd">
<svg version="1.0" xmlns="http://www.w3.org/2000/svg"
 width="500.000000pt" height="500.000000pt" viewBox="0 0 500.000000 500.000000"
 preserveAspectRatio="xMidYMid meet">
<metadata>
Created by potrace 1.11, written by Peter Selinger 2001-2013
</metadata>
<g transform="translate(0.000000,500.000000) scale(0.100000,-0.100000)"
fill="#000000" stroke="none">
<path d="M3117 4904 c-1 -1 -33 -5 -72 -8 -709 -68 -1180 -386 -1396 -945 -43
-110 -85 -271 -105 -396 -30 -193 -32 -257 -33 -1242 l-2 -1001 461 0 460 0 1
987 c0 542 3 1000 5 1016 2 17 9 61 14 98 13 86 60 211 107 280 107 160 270
245 523 272 14 2 112 3 218 4 l192 1 0 471 0 470 -186 -3 c-102 -1 -186 -3
-187 -4z"/>
<path d="M776 1049 c-305 -79 -456 -442 -305 -729 153 -289 529 -349 758 -120
197 196 201 511 9 715 -118 126 -296 178 -462 134z"/>
<path d="M1890 1062 c-172 -23 -331 -161 -390 -337 -23 -68 -31 -184 -18 -261
28 -166 169 -330 328 -381 86 -28 238 -25 315 6 217 87 354 332 311 556 -3 17
-8 41 -11 55 -2 14 -20 57 -40 96 -59 120 -180 221 -305 254 -45 12 -144 19
-190 12z"/>
<path d="M2930 1058 c-95 -17 -212 -90 -285 -179 -121 -146 -141 -388 -47
-563 83 -153 257 -260 422 -257 145 2 255 53 357 165 86 94 126 202 125 341 0
170 -74 315 -212 417 -89 65 -241 98 -360 76z"/>
<path d="M3976 1053 c-170 -39 -313 -184 -363 -368 -7 -27 -13 -87 -12 -131 6
-305 263 -533 550 -488 42 7 97 21 123 32 117 52 225 172 265 293 20 61 23 81
26 160 9 222 -132 425 -342 493 -69 23 -174 27 -247 9z m219 -44 c151 -41 292
-192 322 -346 15 -75 8 -187 -17 -254 -67 -186 -218 -299 -405 -305 -264 -8
-471 216 -452 491 11 155 81 275 212 360 103 67 221 85 340 54z"/>
</g>
</svg>
