<?xml version="1.0" encoding="utf-8"?>
<!-- Generator: Adobe Illustrator 19.0.0, SVG Export Plug-In . SVG Version: 6.00 Build 0)  -->
<svg version="1.1" id="Capa_1" xmlns="http://www.w3.org/2000/svg" xmlns:xlink="http://www.w3.org/1999/xlink" x="0px" y="0px"
	 viewBox="0 0 156 55" style="enable-background:new 0 0 156 55;" xml:space="preserve">
<style type="text/css">
	.st0{fill:#FFFFFF;}
</style>
<path class="st0" d="M5.5,22.4c0.2-9,5-13.5,14.3-13.5h1v7.3h-2.4c-3.9,0-5.8,2.1-5.8,6.1v14.5H5.5V22.4z"/>
<path class="st0" d="M31.3,16.2h-7c0.8-5.2,4.5-7.7,10.9-7.7c7.7,0,11.6,2.5,11.7,7.7v9.5c0,7.7-4.6,11.1-12.2,11.6
	c-6.7,0.5-11.3-2.6-11.3-8.7c0.2-6.7,5-8.5,12.1-9.2c3-0.4,4.5-1.3,4.5-2.8c-0.2-1.6-1.6-2.4-4.5-2.4C33.1,14.3,31.7,14.9,31.3,16.2
	z M40.2,25.4v-2.6c-1.6,0.7-3.5,1.3-5.6,1.7c-2.8,0.5-4.2,1.8-4.2,3.9c0.2,2.2,1.3,3.3,3.5,3.3C37.8,31.6,40.2,29.3,40.2,25.4z"/>
<path class="st0" d="M62.5,31.7c2.9,0,4.4-0.8,4.4-2.6c0-1.4-2.4-2.6-7.2-3.4c-6.2-1.1-9.3-3.8-9.4-8.2c0-6,4.7-8.8,11.1-8.9
	c3.6,0,6.4,0.8,8.5,2.4c2.1,1.6,3.2,3.9,3.3,6.8h-4.4c-1.6-0.1-2.7-0.6-3.1-1.7c-0.5-1.2-1.9-1.9-4.2-1.9c-2.7,0-4.1,0.7-4.1,2.2
	s1.8,2.5,5.4,3.2c4.7,0.9,7.8,2.2,9.4,3.6c1.3,1.4,1.9,3.1,1.9,4.9c0,6.8-5.4,9.4-12.7,9.4c-3.9,0-6.8-0.8-8.7-2.5
	c-2.1-1.6-3.2-4-3.2-7.2h7.2C56.9,30.7,59.1,31.7,62.5,31.7z"/>
<path class="st0" d="M85,14h-0.7v15.4c0,1.2,0.7,1.8,2.1,1.8h2.2v5.3c-2.3,0.2-4.7,0.2-7.4-0.1s-3.9-1.9-3.8-5V1h3.6
	c1.8,0,3.4,1.7,3.4,3.5v4.4h4.2v1.5C88.4,12.5,86.9,14,85,14z"/>
<path class="st0" d="M91.4,22.4c0.2-9,5-13.5,14.3-13.5h1v7.3h-2.4c-3.9,0-5.8,2.1-5.8,6.1v14.5h-7.1V22.4z"/>
<path class="st0" d="M117.2,16.2h-7c0.8-5.2,4.5-7.7,10.9-7.7c7.7,0,11.6,2.5,11.7,7.7v9.5c0,7.7-4.6,11.1-12.2,11.6
	c-6.7,0.5-11.3-2.6-11.3-8.7c0.2-6.7,5-8.5,12.1-9.2c3-0.4,4.5-1.3,4.5-2.8c-0.2-1.6-1.6-2.4-4.5-2.4
	C118.9,14.3,117.6,14.9,117.2,16.2z M126,25.4v-2.6c-1.6,0.7-3.5,1.3-5.6,1.7c-2.8,0.5-4.2,1.8-4.2,3.9c0.2,2.2,1.3,3.3,3.5,3.3
	C123.7,31.6,126,29.3,126,25.4z"/>
<path class="st0" d="M136.2,22.4c0.2-9,5-13.5,14.3-13.5h1v7.3h-2.4c-3.9,0-5.8,2.1-5.8,6.1v14.5h-7.1V22.4z"/>
<path class="st0" d="M143.8,41.8c3.2,0,5.9,2.6,5.9,5.9s-2.6,5.9-5.9,5.9s-5.9-2.6-5.9-5.9S140.6,41.8,143.8,41.8 M143.8,41.4
	c-3.5,0-6.3,2.8-6.3,6.3c0,3.5,2.8,6.3,6.3,6.3s6.3-2.8,6.3-6.3C150.1,44.2,147.3,41.4,143.8,41.4L143.8,41.4z"/>
<rect x="108.2" y="47.5" class="st0" width="27" height="0.5"/>
<rect x="63.8" y="46.8" class="st0" width="27" height="1.9"/>
<rect x="19.5" y="46.8" class="st0" width="27" height="1.9"/>
<circle class="st0" cx="55.1" cy="47.7" r="6.3"/>
<circle class="st0" cx="99.5" cy="47.7" r="6.3"/>
<path class="st0" d="M10.8,41.4c-3.5,0-6.3,2.8-6.3,6.3c0,3.5,2.8,6.3,6.3,6.3s6.3-2.8,6.3-6.3C17.1,44.2,14.3,41.4,10.8,41.4z"/>
</svg>
